<svg xmlns="http://www.w3.org/2000/svg" viewBox="0 0 9.261 8.729"><path d="M8.763 2.197a3.743 3.743 0 00-1.44-1.54 3.9 3.9 0 00-2.16-.6.014.014 0 00-.02 0 4.08 4.08 0 00-2.2.6 3.809 3.809 0 00-1.44 1.54 5.028 5.028 0 000 4.33 3.861 3.861 0 001.44 1.56 4.019 4.019 0 001.72.56 3.863 3.863 0 00.48.03 4.043 4.043 0 002.18-.59 3.793 3.793 0 001.44-1.56 4.937 4.937 0 000-4.33zm-5.15 4.62a.744.744 0 01-.49-.26l-1.31-1.71a.7.7 0 01.11-1 .726.726 0 01.69-.11 3.115 3.115 0 01.65-1.47 2.474 2.474 0 013.75 0 3.228 3.228 0 01.69 2.09 3.3 3.3 0 01-.69 2.11 2.473 2.473 0 01-3.4.35z" fill="#8c93b3"/><path d="M7.855 2.164A3.955 3.955 0 006.393.588a4.464 4.464 0 00-4.429 0A3.958 3.958 0 00.501 2.164a4.663 4.663 0 00-.5 2.193 4.744 4.744 0 00.5 2.194 3.784 3.784 0 001.463 1.576 4.374 4.374 0 004.429 0 3.781 3.781 0 001.462-1.576 4.926 4.926 0 00.5-2.194 4.838 4.838 0 00-.5-2.193zm-1.075.932L4.271 6.579a.692.692 0 01-.559.3h-.014a.734.734 0 01-.573-.272L1.806 4.901a.7142.7142 0 011.118-.889l.745.961 1.95-2.709a.713.713 0 011-.172.726.726 0 01.161 1.004z" fill="#101c47"/></svg>