<svg xmlns="http://www.w3.org/2000/svg" viewBox="0 0 38.134 7.615"><defs><style>.a{fill:#8c93b3}.b{fill:#fff}</style></defs><path class="a" d="M37.788 3.03a3.519 3.519 0 010 3.06 2.636 2.636 0 01-1.02 1.1 2.822 2.822 0 01-1.54.42 2.881 2.881 0 01-1.55-.42 2.636 2.636 0 01-1.02-1.1 3.519 3.519 0 010-3.06 2.672 2.672 0 011.02-1.09 2.881 2.881 0 011.55-.42 2.822 2.822 0 011.54.42 2.672 2.672 0 011.02 1.09zm-.75 1.53a2.258 2.258 0 00-.49-1.48 1.578 1.578 0 00-1.32-.61 1.61 1.61 0 00-1.33.61 2.333 2.333 0 00-.49 1.48 2.362 2.362 0 00.49 1.49 1.611 1.611 0 001.33.61 1.579 1.579 0 001.32-.61 2.3 2.3 0 00.486-1.49zM31.895 6.735a.4.4 0 01.13.31.464.464 0 01-.3.43 1.98 1.98 0 01-.8.14 1.348 1.348 0 01-1.04-.37 1.423 1.423 0 01-.36-1.05v-3.6h-.57a.444.444 0 01-.33-.13.439.439 0 01-.14-.34.412.412 0 01.14-.32.444.444 0 01.33-.13h.57V.525a.523.523 0 01.16-.37.561.561 0 01.39-.15.5.5 0 01.37.16.491.491 0 01.15.36v1.15h.8a.444.444 0 01.33.13.484.484 0 01.13.34.422.422 0 01-.13.32.444.444 0 01-.33.13h-.8v3.35a.857.857 0 00.16.53.489.489 0 00.41.19 1.04 1.04 0 00.21-.03.891.891 0 01.19-.03.445.445 0 01.33.13z"/><g><path class="b" d="M0 7.007V.516A.476.476 0 01.165.153.554.554 0 01.557 0a.534.534 0 01.516.516v4.106l2.736-2.883a.485.485 0 01.346-.158.5.5 0 01.375.832l-1.8 1.881 1.91 2.4a.458.458 0 01.106.311.542.542 0 01-.15.372.485.485 0 01-.378.167.464.464 0 01-.416-.217L1.963 4.954l-.885.9v1.148a.5.5 0 01-.158.372.524.524 0 01-.381.155.514.514 0 01-.375-.155A.5.5 0 010 7.007zM5.996 7.007V2.114a.478.478 0 01.164-.363.558.558 0 01.392-.152.53.53 0 01.516.515v.37a2.77 2.77 0 01.882-.68 2.514 2.514 0 011.169-.281 1.658 1.658 0 011.863 1.863v3.621a.5.5 0 01-.159.372.528.528 0 01-.383.155.507.507 0 01-.374-.155.5.5 0 01-.156-.372V3.743a1.276 1.276 0 00-.32-.978 1.305 1.305 0 00-.917-.293 1.836 1.836 0 00-.92.246 2.071 2.071 0 00-.685.6v3.686a.5.5 0 01-.158.372.524.524 0 01-.381.155.514.514 0 01-.375-.155.5.5 0 01-.158-.369zM17.566 3.035a2.76 2.76 0 00-1.02-1.1 3.116 3.116 0 00-3.09 0 2.76 2.76 0 00-1.02 1.1 3.251 3.251 0 00-.35 1.53 3.308 3.308 0 00.35 1.53 2.637 2.637 0 001.02 1.1 3.052 3.052 0 003.09 0 2.637 2.637 0 001.02-1.1 3.437 3.437 0 00.35-1.53 3.376 3.376 0 00-.35-1.53zm-.75.65l-1.75 2.43a.484.484 0 01-.39.21h-.01a.512.512 0 01-.4-.19l-.92-1.19a.5.5 0 11.78-.62l.52.67 1.36-1.89a.5.5 0 01.7-.12.507.507 0 01.11.7zM18.463 2.114a.508.508 0 01.148-.357.478.478 0 01.362-.158.563.563 0 01.321.1.5.5 0 01.2.258L20.733 6.1l1.35-4.1a.6.6 0 01.221-.293.616.616 0 01.367-.111.55.55 0 01.337.111.611.611 0 01.215.293l1.362 4.1 1.231-4.143A.442.442 0 0126 1.699a.538.538 0 01.316-.1.516.516 0 01.378.151.5.5 0 01.151.362.664.664 0 01-.023.141l-1.514 4.788a.678.678 0 01-.249.356.688.688 0 01-.419.137h-.012a.711.711 0 01-.672-.492l-1.3-4.043-1.306 4.043a.631.631 0 01-.249.355.711.711 0 01-.424.137h-.023a.673.673 0 01-.408-.137.7.7 0 01-.254-.355l-1.504-4.787a.619.619 0 01-.025-.141z"/></g></svg>